<?xml version="1.0" encoding="utf-8"?>
<!-- Generator: Adobe Illustrator 22.1.0, SVG Export Plug-In . SVG Version: 6.00 Build 0)  -->
<svg version="1.1" id="Layer_1" xmlns="http://www.w3.org/2000/svg" xmlns:xlink="http://www.w3.org/1999/xlink" x="0px" y="0px"
	 viewBox="0 0 330 330" style="enable-background:new 0 0 330 330;" xml:space="preserve">
<style type="text/css">
	.st0{fill:#FFFFFF;stroke:#333333;stroke-width:3;stroke-miterlimit:10;}
</style>
<g id="XMLID_85_">
	<circle class="st0" cx="165" cy="165" r="153"/>
	<path id="XMLID_89_" d="M165,206.9L165,206.9c16.5,0,32-6.4,43.7-18.1c4.2-4.2,4.2-10.9,0-15.1c-2.1-2.1-4.8-3.1-7.5-3.1
		s-5.5,1-7.5,3.1c-7.6,7.6-17.8,11.9-28.6,11.9s-21-4.2-28.6-11.9c-4.2-4.2-10.9-4.2-15.1,0s-4.2,10.9,0,15.1
		C133,200.4,148.5,206.9,165,206.9z"/>
	<path id="XMLID_90_" d="M120.6,147.4c2.6-2.6,4.2-6.3,4.2-10s-1.5-7.4-4.2-10c-2.6-2.6-6.3-4.2-10-4.2s-7.4,1.5-10,4.2
		c-2.6,2.6-4.2,6.3-4.2,10s1.5,7.4,4.2,10c2.6,2.6,6.3,4.2,10,4.2S117.9,150,120.6,147.4z"/>
	<path id="XMLID_91_" d="M224.7,123.1c-3.7,0-7.4,1.5-10,4.2c-2.6,2.6-4.2,6.3-4.2,10s1.5,7.4,4.2,10c2.6,2.6,6.3,4.2,10,4.2
		s7.4-1.5,10-4.2c2.6-2.6,4.2-6.3,4.2-10s-1.5-7.4-4.2-10C232.1,124.6,228.4,123.1,224.7,123.1z"/>
</g>
</svg>
